# xmcd
#
# Track frame offsets:
#	150
#	13315
#	28092
#	40652
#
# Disc length: 724 seconds
#
# Revision: 0
# Processed by: cddbd v1.5.2PL0 Copyright (c) Steve Scherf et al.
# Submitted via: EasyCDDAExtractor 10.2.0.1
#
DISCID=2a02d204
DTITLE=Johnny Nash - I Can See Clearly Now [CDS)
DYEAR=1989
DGENRE=Soul
TTITLE0=I Can See Clearly Now
TTITLE1=Tears On My Pillow (I Can't Take It)
TTITLE2=There Are More Questions Than Answers
TTITLE3=Wonderful World
EXTD=
EXTT0=
EXTT1=
EXTT2=
EXTT3=
PLAYORDER=
